<svg id="svg" xmlns="http://www.w3.org/2000/svg" xmlns:xlink="http://www.w3.org/1999/xlink" width="400" height="400" viewBox="0, 0, 400,400"><g id="svgg"><path id="path0" d="M226.737 1.575 C 219.593 3.447,212.461 6.829,206.777 11.040 C 201.386 15.035,9.989 213.432,6.485 218.659 C -1.638 230.775,-2.272 248.141,4.899 262.109 C 8.503 269.128,130.872 391.497,137.891 395.101 C 150.537 401.594,165.273 401.818,177.344 395.700 C 191.390 388.583,183.318 373.587,169.040 380.273 C 162.811 383.190,153.901 383.297,148.047 380.526 C 142.324 377.818,22.189 257.712,19.441 251.953 C 16.561 245.914,16.765 236.991,19.922 230.991 C 21.983 227.074,163.120 79.389,208.203 33.976 C 225.776 16.274,220.808 17.188,299.498 17.188 C 372.012 17.187,367.647 16.764,375.442 24.558 C 383.234 32.351,382.813 28.017,382.813 100.295 C 382.813 160.474,382.749 163.280,381.250 169.141 C 379.073 177.652,379.195 180.096,381.931 182.833 C 388.619 189.520,395.226 185.602,398.438 173.044 C 400.439 165.223,400.887 38.161,398.940 30.859 C 395.148 16.639,383.361 4.852,369.141 1.060 C 362.068 -0.826,234.135 -0.363,226.737 1.575 M305.791 51.383 C 272.648 63.190,276.867 110.591,311.592 116.546 C 343.334 121.989,363.369 81.440,339.947 59.158 C 331.123 50.763,316.729 47.486,305.791 51.383 M323.054 68.645 C 335.381 74.245,335.924 91.350,323.971 97.536 C 317.706 100.779,309.540 99.436,304.974 94.412 C 293.328 81.596,307.404 61.535,323.054 68.645 M279.042 183.624 C 187.661 195.130,150.512 306.169,216.655 370.101 C 278.837 430.204,384.121 395.384,398.808 309.859 C 410.955 239.127,349.839 174.710,279.042 183.624 M305.529 201.588 C 348.578 207.685,382.813 247.319,382.813 291.061 C 382.813 373.594,282.492 413.890,225.707 354.167 C 166.178 291.558,219.611 189.421,305.529 201.588 M287.315 233.993 C 283.043 236.395,282.813 237.793,282.813 261.289 L 282.813 282.813 261.289 282.813 C 237.503 282.813,236.299 283.025,233.915 287.634 C 232.237 290.878,232.936 294.931,235.664 297.778 L 237.792 300.000 260.269 300.000 L 282.745 300.000 282.974 322.606 L 283.203 345.212 285.498 347.606 C 288.763 351.013,294.370 351.063,297.716 347.716 L 300.000 345.433 300.000 322.716 L 300.000 300.000 322.716 300.000 L 345.433 300.000 347.716 297.716 C 351.063 294.370,351.013 288.763,347.606 285.498 L 345.212 283.203 322.606 282.974 L 300.000 282.745 300.000 260.269 L 300.000 237.792 297.743 235.630 C 294.980 232.982,290.392 232.262,287.315 233.993 " stroke="none" fill="#000000" fill-rule="evenodd"></path></g></svg>