<svg id="svg" xmlns="http://www.w3.org/2000/svg" width="400" height="400" viewBox="0, 0, 400,400"><g id="svgg"><path id="path0" d="M30.469 1.116 C 16.504 4.994,4.800 16.831,1.060 30.859 C -0.481 36.640,-0.481 313.360,1.060 319.141 C 4.843 333.329,16.645 345.129,30.859 348.935 C 37.323 350.666,152.885 350.472,155.377 348.726 C 160.908 344.853,159.743 335.962,153.390 333.546 C 152.252 333.113,128.109 332.813,94.510 332.813 C 38.116 332.813,37.515 332.796,33.061 331.130 C 26.993 328.859,21.141 323.007,18.870 316.939 L 17.188 312.441 17.188 175.000 L 17.187 37.559 18.870 33.061 C 21.141 26.993,26.993 21.141,33.061 18.870 L 37.559 17.188 141.687 17.188 C 257.305 17.188,249.109 16.809,256.641 22.499 C 259.485 24.647,261.290 26.907,263.281 30.809 L 266.016 36.168 266.406 91.590 L 266.797 147.011 268.982 148.891 C 273.144 152.469,277.491 152.317,281.350 148.458 L 283.594 146.214 283.594 91.505 C 283.594 55.041,283.309 35.415,282.741 32.656 C 279.758 18.166,267.905 5.572,253.179 1.246 C 247.514 -0.417,36.435 -0.541,30.469 1.116 M53.731 67.624 C 48.390 70.522,48.489 79.620,53.891 82.414 C 57.316 84.185,142.684 84.185,146.109 82.414 C 151.601 79.574,151.601 70.426,146.109 67.586 C 142.727 65.837,56.959 65.872,53.731 67.624 M55.469 133.362 C 49.748 135.444,47.979 143.412,52.284 147.716 L 54.567 150.000 141.398 150.000 C 199.457 150.000,228.726 149.733,229.731 149.196 C 235.201 146.268,234.692 136.977,228.898 133.980 C 226.638 132.811,58.627 132.213,55.469 133.362 M279.042 183.624 C 187.661 195.130,150.512 306.169,216.655 370.101 C 278.837 430.204,384.121 395.384,398.808 309.859 C 410.955 239.127,349.839 174.710,279.042 183.624 M52.284 202.284 C 48.936 205.631,48.987 211.237,52.395 214.502 L 54.789 216.797 107.481 217.008 C 165.629 217.241,163.475 217.412,166.085 212.366 C 167.763 209.122,167.064 205.069,164.336 202.222 L 162.208 200.000 108.387 200.000 L 54.567 200.000 52.284 202.284 M305.529 201.588 C 348.578 207.685,382.813 247.319,382.813 291.061 C 382.813 373.525,282.444 413.840,225.707 354.167 C 166.178 291.558,219.611 189.421,305.529 201.588 M287.315 233.993 C 283.043 236.395,282.813 237.793,282.813 261.289 L 282.813 282.813 261.289 282.813 C 237.503 282.813,236.299 283.025,233.915 287.634 C 232.237 290.878,232.936 294.931,235.664 297.778 L 237.792 300.000 260.269 300.000 L 282.745 300.000 282.974 322.606 L 283.203 345.212 285.498 347.606 C 288.763 351.013,294.370 351.063,297.716 347.716 L 300.000 345.433 300.000 322.716 L 300.000 300.000 322.716 300.000 L 345.433 300.000 347.716 297.716 C 351.063 294.370,351.013 288.763,347.606 285.498 L 345.212 283.203 322.606 282.974 L 300.000 282.745 300.000 260.269 L 300.000 237.792 297.743 235.630 C 294.980 232.982,290.392 232.262,287.315 233.993 " stroke="none" fill="#000000" fill-rule="evenodd"></path></g></svg>