<svg id="svg" xmlns="http://www.w3.org/2000/svg" xmlns:xlink="http://www.w3.org/1999/xlink" width="400" height="400" viewBox="0, 0, 400,400"><g id="svgg"><path id="path0" d="M30.469 1.116 C 16.504 4.994,4.800 16.831,1.060 30.859 C 0.259 33.862,0.016 43.720,0.009 73.487 L 0.000 112.208 2.222 114.336 C 5.069 117.064,9.122 117.763,12.366 116.085 C 17.229 113.570,17.188 113.935,17.188 73.896 C 17.187 31.670,17.142 31.975,24.558 24.558 C 31.975 17.142,31.670 17.188,73.896 17.188 C 113.935 17.188,113.570 17.229,116.085 12.366 C 117.763 9.122,117.064 5.069,114.336 2.222 L 112.208 -0.000 73.096 0.070 C 44.395 0.121,33.049 0.400,30.469 1.116 M285.664 2.222 C 282.936 5.069,282.237 9.122,283.915 12.366 C 286.430 17.229,286.065 17.188,326.104 17.188 C 368.330 17.188,368.025 17.142,375.442 24.558 C 382.858 31.975,382.813 31.670,382.813 73.896 C 382.813 113.935,382.771 113.570,387.634 116.085 C 390.878 117.763,394.931 117.064,397.778 114.336 L 400.000 112.208 399.991 73.487 C 399.981 31.605,399.944 31.179,395.629 22.266 C 392.613 16.037,383.963 7.387,377.734 4.371 C 368.821 0.056,368.395 0.019,326.513 0.009 L 287.792 0.000 285.664 2.222 M101.524 83.869 C 94.533 85.769,88.101 91.360,84.873 98.342 C 82.860 102.695,81.785 173.758,83.663 178.293 C 85.773 183.386,91.673 185.092,96.659 182.053 C 100.095 179.958,99.979 181.279,100.197 141.658 C 100.414 102.031,100.246 103.150,106.323 101.021 C 110.160 99.676,289.840 99.676,293.677 101.021 C 299.754 103.150,299.586 102.031,299.803 141.658 C 300.021 181.279,299.905 179.958,303.341 182.053 C 308.327 185.092,314.227 183.386,316.337 178.293 C 318.229 173.725,317.138 102.692,315.109 98.300 C 312.718 93.127,307.597 87.893,302.454 85.368 L 298.047 83.203 201.563 83.053 C 126.972 82.937,104.272 83.122,101.524 83.869 M55.469 233.359 C 49.744 235.458,47.979 243.412,52.284 247.716 L 54.567 250.000 68.639 250.000 L 82.711 250.000 82.957 274.023 L 83.203 298.047 85.368 302.454 C 87.893 307.597,93.127 312.718,98.300 315.109 L 101.953 316.797 200.000 316.797 L 298.047 316.797 302.454 314.632 C 315.098 308.423,316.737 303.860,317.043 274.023 L 317.289 250.000 331.361 250.000 L 345.433 250.000 347.716 247.716 C 351.064 244.369,351.013 238.762,347.605 235.498 L 345.210 233.203 200.925 233.066 C 121.569 232.991,56.113 233.123,55.469 233.359 M299.850 271.820 C 299.580 296.273,299.423 296.966,293.677 298.979 C 289.840 300.324,110.160 300.324,106.323 298.979 C 100.577 296.966,100.420 296.273,100.150 271.820 L 99.909 250.000 200.000 250.000 L 300.091 250.000 299.850 271.820 M5.469 283.362 C 4.824 283.597,3.330 284.690,2.148 285.791 L 0.000 287.792 0.009 326.513 C 0.016 356.280,0.259 366.138,1.060 369.141 C 4.843 383.329,16.645 395.129,30.859 398.935 C 33.872 399.742,43.627 399.984,73.487 399.991 L 112.208 400.000 114.336 397.778 C 117.064 394.931,117.763 390.878,116.085 387.634 C 113.570 382.771,113.935 382.813,73.896 382.813 C 31.670 382.813,31.975 382.858,24.558 375.442 C 17.142 368.025,17.188 368.330,17.188 326.104 C 17.188 295.151,17.012 289.427,16.002 287.474 C 14.133 283.860,9.293 281.971,5.469 283.362 M387.315 283.993 C 382.803 286.530,382.813 286.439,382.813 326.104 C 382.813 368.330,382.858 368.025,375.442 375.442 C 368.025 382.858,368.330 382.813,326.104 382.813 C 286.065 382.813,286.430 382.771,283.915 387.634 C 282.237 390.878,282.936 394.931,285.664 397.778 L 287.792 400.000 326.766 400.000 L 365.740 400.000 371.652 398.015 C 385.229 393.458,395.297 382.805,398.940 369.141 C 399.741 366.138,399.984 356.280,399.991 326.513 L 400.000 287.792 397.743 285.630 C 394.980 282.982,390.392 282.262,387.315 283.993 " stroke="none" fill="#000000" fill-rule="evenodd"></path></g></svg>