<svg id="svg" xmlns="http://www.w3.org/2000/svg" xmlns:xlink="http://www.w3.org/1999/xlink" width="400" height="400" viewBox="0, 0, 400,400"><g id="svgg"><path id="path0" d="M57.422 43.302 C 44.152 49.265,16.585 95.408,7.440 126.965 C -1.660 158.368,-2.885 218.185,5.480 222.662 C 13.337 226.867,15.813 221.793,13.681 205.859 C 6.885 155.080,23.345 100.447,57.430 60.659 L 62.687 54.522 68.382 60.178 L 74.076 65.835 68.400 72.566 C 15.257 135.588,15.199 229.034,68.264 292.578 L 74.136 299.609 68.925 304.883 C 62.825 311.056,63.036 311.003,59.642 307.227 C 45.530 291.525,30.427 266.303,23.738 247.266 C 20.359 237.650,15.883 234.827,11.293 239.418 C 8.639 242.071,8.854 244.099,12.872 254.377 C 20.742 274.503,33.603 296.180,47.187 312.213 C 59.197 326.388,65.580 326.611,78.407 313.306 C 89.489 301.810,89.449 297.770,78.123 284.375 C 29.392 226.745,28.687 141.284,76.460 82.956 C 86.863 70.255,87.595 68.654,85.890 62.324 C 84.844 58.438,72.442 45.083,68.189 43.263 C 65.035 41.914,60.474 41.930,57.422 43.302 M331.641 43.295 C 327.458 45.162,315.127 58.547,314.110 62.324 C 312.405 68.654,313.137 70.255,323.540 82.956 C 371.311 141.282,370.606 226.747,321.877 284.375 C 310.551 297.770,310.511 301.810,321.593 313.306 C 334.427 326.618,340.879 326.389,352.818 312.197 C 401.976 253.765,413.875 174.023,383.999 103.241 C 380.121 94.053,379.141 92.969,374.717 92.969 C 368.080 92.969,367.535 96.973,372.576 108.721 C 401.071 175.129,388.284 253.910,340.359 307.227 C 336.964 311.003,337.175 311.056,331.075 304.883 L 325.864 299.609 331.736 292.578 C 385.131 228.639,384.705 134.808,330.733 71.488 L 325.919 65.840 331.599 60.198 L 337.278 54.556 341.491 59.393 C 343.808 62.053,348.518 67.972,351.958 72.545 C 359.191 82.159,361.922 83.461,366.098 79.286 C 369.321 76.063,368.388 73.308,360.529 62.845 C 345.875 43.335,340.182 39.482,331.641 43.295 M97.948 84.311 C 91.805 87.101,72.656 113.524,72.656 119.212 C 72.656 122.333,75.562 125.000,78.963 125.000 C 82.697 125.000,83.399 124.294,89.063 114.848 C 91.426 110.907,95.592 104.855,98.321 101.400 L 103.283 95.118 108.957 100.754 L 114.632 106.391 109.420 113.332 C 77.279 156.132,78.375 215.144,112.057 255.410 L 114.948 258.867 109.378 264.394 L 103.808 269.922 100.311 266.102 C 75.036 238.491,64.101 193.185,73.101 153.357 C 75.447 142.970,75.447 142.563,73.082 140.199 C 60.776 127.893,52.518 173.996,60.221 211.997 C 66.824 244.571,89.909 282.013,103.398 282.027 C 113.709 282.038,128.565 265.788,126.955 256.259 C 126.440 253.215,126.185 252.806,118.310 242.434 C 91.227 206.764,92.166 155.404,120.555 119.680 C 130.119 107.644,129.698 103.260,117.859 91.634 C 108.867 82.804,104.667 81.259,97.948 84.311 M291.016 84.307 C 289.297 85.111,284.831 88.882,281.092 92.689 C 270.917 103.046,270.194 108.196,277.633 117.330 C 307.786 154.361,309.456 205.864,281.690 242.434 C 273.815 252.806,273.560 253.215,273.045 256.259 C 272.096 261.880,273.793 265.391,281.040 272.797 C 293.448 285.477,300.360 285.536,310.609 273.047 C 353.718 220.512,353.357 143.669,309.752 91.138 C 303.174 83.213,297.659 81.203,291.016 84.307 M307.880 110.077 C 340.219 157.839,336.643 225.737,299.661 266.132 L 296.192 269.922 290.622 264.394 L 285.052 258.867 287.943 255.410 C 321.612 215.160,322.696 155.688,290.533 113.325 L 285.322 106.461 290.903 100.865 L 296.484 95.268 299.432 98.610 C 301.053 100.449,304.855 105.609,307.880 110.077 M140.600 124.173 C 137.024 125.259,135.098 126.888,131.309 132.031 C 112.420 157.672,109.514 191.950,123.790 220.703 C 135.522 244.330,144.733 247.314,159.538 232.285 C 169.883 221.783,170.397 217.556,162.760 205.766 C 153.466 191.418,153.968 172.916,164.070 157.410 C 170.469 147.589,169.531 143.204,158.771 132.639 C 149.963 123.990,146.505 122.379,140.600 124.173 M251.233 124.563 C 247.240 126.031,233.936 139.175,232.723 142.849 C 231.273 147.242,232.278 151.805,235.930 157.410 C 246.244 173.240,246.534 191.448,236.716 206.641 C 229.643 217.584,230.281 221.950,240.462 232.285 C 255.267 247.314,264.478 244.330,276.210 220.703 C 290.473 191.977,287.572 157.720,268.701 132.031 C 263.137 124.456,257.765 122.160,251.233 124.563 M153.706 150.111 C 140.596 167.560,140.352 195.888,153.153 214.494 L 155.667 218.148 150.065 223.722 L 144.464 229.297 142.194 226.563 C 123.130 203.597,122.560 166.579,140.868 140.385 L 144.039 135.848 149.858 141.668 L 155.677 147.487 153.706 150.111 M259.163 140.430 C 277.439 166.578,276.855 203.616,257.806 226.563 L 255.536 229.297 249.997 223.784 L 244.457 218.272 248.034 212.418 C 259.648 193.412,258.914 166.654,246.325 150.118 L 244.334 147.501 250.077 141.719 C 256.894 134.857,255.415 135.067,259.163 140.430 M193.552 155.487 C 169.945 161.445,164.604 193.734,185.183 206.076 C 206.044 218.587,231.547 201.441,227.277 177.777 C 224.480 162.282,208.493 151.715,193.552 155.487 M204.157 168.025 C 211.255 169.996,216.498 178.480,214.895 185.401 C 212.591 195.345,202.252 200.398,193.187 196.010 C 176.985 188.167,186.773 163.198,204.157 168.025 M123.438 298.164 C 119.436 299.793,119.531 299.072,119.531 327.799 L 119.531 354.574 121.590 356.193 C 127.430 360.788,131.250 357.292,131.963 346.698 L 132.422 339.880 139.357 347.870 C 148.488 358.388,150.690 359.562,154.973 356.193 C 158.959 353.058,158.004 349.724,150.781 341.549 C 144.404 334.331,143.902 333.594,145.367 333.594 C 147.666 333.594,153.106 328.663,155.000 324.863 C 159.742 315.348,156.164 304.798,146.495 299.778 C 143.328 298.133,126.420 296.950,123.438 298.164 M172.656 298.183 C 168.662 299.745,168.750 299.077,168.750 327.799 L 168.750 354.574 170.808 356.193 C 177.332 361.325,181.250 356.524,181.250 343.398 L 181.250 334.526 188.742 334.255 C 197.254 333.948,199.219 332.708,199.219 327.648 C 199.219 322.954,197.248 321.875,188.672 321.875 L 181.250 321.875 181.250 316.016 L 181.250 310.156 189.317 310.156 C 200.024 310.156,204.154 305.905,199.290 299.891 C 197.806 298.056,176.478 296.689,172.656 298.183 M215.989 298.383 C 212.117 299.993,212.109 300.051,212.109 327.922 L 212.109 354.042 214.301 355.927 C 216.990 358.239,219.453 358.323,222.160 356.193 L 224.219 354.574 224.219 327.799 C 224.219 303.289,224.103 300.919,222.852 299.791 C 221.069 298.185,217.986 297.552,215.989 298.383 M239.309 298.392 C 236.099 299.781,235.938 301.202,235.938 328.109 L 235.938 353.977 237.929 355.969 C 240.992 359.032,259.025 358.553,265.793 355.230 C 285.884 345.363,285.516 308.902,265.234 299.904 C 260.910 297.986,242.703 296.924,239.309 298.392 M142.584 312.506 C 147.286 316.923,143.340 322.656,135.598 322.656 L 132.031 322.656 132.031 316.310 L 132.031 309.963 136.334 310.320 C 139.437 310.577,141.180 311.187,142.584 312.506 M258.725 310.961 C 264.533 312.574,267.960 318.798,267.960 327.734 C 267.960 339.493,262.928 345.313,252.759 345.313 L 248.438 345.313 248.438 327.734 L 248.438 310.156 252.148 310.161 C 254.189 310.163,257.149 310.523,258.725 310.961 " stroke="none" fill="#000000" fill-rule="evenodd"></path></g></svg>