<svg id="svg" xmlns="http://www.w3.org/2000/svg" xmlns:xlink="http://www.w3.org/1999/xlink" width="400" height="400" viewBox="0, 0, 400,400"><g id="svgg"><path id="path0" d="M5.710 52.425 C 0.008 54.074,-0.003 54.142,0.025 87.230 C 0.043 109.258,0.292 117.105,1.001 118.005 C 5.029 123.116,12.740 123.135,16.200 118.044 C 17.424 116.242,17.605 113.465,17.817 93.217 L 18.055 70.418 40.863 70.170 C 60.586 69.955,63.919 69.747,65.501 68.626 C 71.811 64.158,70.950 55.022,63.989 52.583 C 60.753 51.449,9.563 51.310,5.710 52.425 M336.011 52.583 C 329.050 55.022,328.189 64.158,334.499 68.626 C 336.081 69.747,339.414 69.955,359.137 70.170 L 381.945 70.418 382.183 93.217 C 382.395 113.465,382.576 116.242,383.800 118.044 C 387.260 123.135,394.971 123.116,398.999 118.005 C 399.708 117.105,399.957 109.258,399.975 87.230 C 400.003 53.826,400.047 54.080,393.912 52.376 C 389.680 51.200,339.443 51.380,336.011 52.583 M56.553 105.103 C 51.682 107.583,51.953 101.995,51.953 200.000 C 51.953 298.583,51.641 292.497,56.830 294.959 C 61.917 297.373,68.001 294.619,69.500 289.222 C 70.722 284.823,70.523 113.743,69.292 110.229 C 67.522 105.178,61.313 102.680,56.553 105.103 M91.652 105.050 C 86.421 107.325,86.673 103.153,86.902 183.642 L 87.109 256.378 89.661 258.658 C 93.255 261.869,98.152 261.869,101.745 258.658 L 104.297 256.378 104.504 184.052 C 104.733 104.035,104.951 107.665,99.783 105.213 C 96.485 103.648,94.946 103.617,91.652 105.050 M126.638 104.857 C 121.117 107.804,121.511 102.319,121.253 179.940 C 121.126 218.258,121.235 251.097,121.494 252.915 C 122.953 263.130,137.340 263.888,139.346 253.856 C 140.190 249.636,139.918 113.970,139.059 110.879 C 137.584 105.567,131.150 102.448,126.638 104.857 M161.183 105.050 C 155.952 107.325,156.204 103.153,156.433 183.642 L 156.641 256.378 159.192 258.658 C 162.786 261.869,167.683 261.869,171.277 258.658 L 173.828 256.378 174.035 183.642 C 174.265 102.869,174.542 107.285,169.114 105.017 C 165.850 103.653,164.381 103.659,161.183 105.050 M197.266 104.442 C 194.773 105.082,192.249 107.858,191.409 110.879 C 190.351 114.691,190.351 285.309,191.409 289.121 C 193.894 298.063,206.106 298.063,208.591 289.121 C 209.649 285.309,209.649 114.691,208.591 110.879 C 207.243 106.028,202.215 103.170,197.266 104.442 M230.715 105.050 C 225.483 107.325,225.735 103.153,225.965 183.642 L 226.172 256.378 228.723 258.658 C 232.317 261.869,237.214 261.869,240.808 258.658 L 243.359 256.378 243.567 183.642 C 243.797 102.869,244.073 107.285,238.645 105.017 C 235.381 103.653,233.912 103.659,230.715 105.050 M266.797 104.431 C 264.296 105.091,261.779 107.863,260.941 110.879 C 260.082 113.970,259.810 249.636,260.654 253.856 C 262.538 263.276,276.524 263.276,278.409 253.856 C 279.502 248.390,278.967 112.594,277.842 109.936 C 275.916 105.384,271.509 103.188,266.797 104.431 M300.094 105.242 C 295.069 107.718,295.267 104.311,295.496 184.052 L 295.703 256.378 298.255 258.658 C 301.848 261.869,306.745 261.869,310.339 258.658 L 312.891 256.378 313.098 183.642 C 313.328 102.869,313.604 107.285,308.176 105.017 C 304.782 103.598,303.350 103.638,300.094 105.242 M335.411 105.046 C 329.658 107.548,330.078 100.065,330.078 200.000 C 330.078 300.396,329.608 292.491,335.734 295.050 C 341.426 297.429,347.170 294.147,348.045 288.017 C 349.185 280.035,348.085 109.823,346.882 108.008 C 344.488 104.393,339.734 103.166,335.411 105.046 M3.885 279.456 C -0.034 282.157,0.051 281.424,0.025 312.770 C -0.008 352.212,-3.720 348.448,35.156 348.389 C 67.389 348.340,69.791 347.697,69.674 339.149 C 69.557 330.699,67.774 330.123,40.863 329.830 L 18.055 329.582 17.817 306.783 C 17.605 286.535,17.424 283.758,16.200 281.956 C 13.602 278.133,7.579 276.910,3.885 279.456 M89.350 280.915 C 86.373 284.071,85.895 287.548,87.904 291.432 C 91.116 297.643,100.475 297.312,103.528 290.879 C 107.922 281.620,96.353 273.489,89.350 280.915 M126.117 278.879 C 122.771 280.233,120.540 285.937,121.926 289.594 C 125.614 299.330,139.346 297.074,139.204 286.757 C 139.111 279.991,132.782 276.181,126.117 278.879 M160.326 279.344 C 154.841 283.186,155.170 291.940,160.912 294.909 C 170.230 299.727,178.939 287.252,171.130 280.273 C 168.328 277.770,163.202 277.329,160.326 279.344 M229.857 279.344 C 223.921 283.502,225.017 293.126,231.676 295.324 C 241.140 298.448,248.109 286.495,240.538 280.125 C 237.748 277.777,232.628 277.403,229.857 279.344 M264.701 279.467 C 260.059 282.346,259.337 288.809,263.177 293.107 C 267.663 298.128,276.231 295.951,278.061 289.324 C 280.212 281.535,271.604 275.185,264.701 279.467 M298.524 280.125 C 295.696 282.505,294.782 286.259,296.076 290.181 C 299.214 299.688,313.281 296.535,313.281 286.325 C 313.281 279.357,304.047 275.478,298.524 280.125 M386.907 279.160 C 382.533 281.590,382.441 282.128,382.183 306.783 L 381.945 329.582 359.137 329.830 C 332.226 330.123,330.443 330.699,330.326 339.149 C 330.209 347.697,332.611 348.340,364.844 348.389 C 393.190 348.432,395.877 348.127,398.404 344.579 C 400.352 341.842,400.898 284.406,398.999 281.995 C 396.110 278.330,390.691 277.059,386.907 279.160 " stroke="none" fill="#000000" fill-rule="evenodd"></path></g></svg>