<svg id="svg" xmlns="http://www.w3.org/2000/svg" xmlns:xlink="http://www.w3.org/1999/xlink" width="400" height="400" viewBox="0, 0, 400,400"><g id="svgg"><path id="path0" d="M26.524 58.869 C 19.534 60.769,13.101 66.359,9.873 73.342 L 8.203 76.953 8.203 183.203 L 8.203 289.453 10.272 293.866 C 15.758 305.568,21.198 308.058,42.419 308.583 L 58.667 308.984 60.501 314.239 C 73.322 350.964,126.668 350.964,139.500 314.239 L 141.336 308.984 208.410 308.785 L 275.484 308.585 276.476 312.457 C 286.317 350.857,345.453 351.097,356.695 312.783 L 357.872 308.769 365.850 308.434 C 378.113 307.920,385.153 303.625,389.728 293.866 L 391.797 289.453 391.797 245.313 C 391.797 203.998,391.703 200.922,390.327 197.266 C 388.107 191.369,327.697 130.626,320.703 127.258 L 316.016 125.001 287.346 125.001 L 258.676 125.000 258.440 100.586 C 258.146 70.228,256.726 66.301,243.866 60.272 L 239.453 58.203 134.766 58.053 C 53.695 57.938,29.276 58.122,26.524 58.869 M237.305 76.555 C 241.540 79.361,241.406 76.846,241.406 153.829 L 241.406 225.000 133.187 225.000 L 24.968 225.000 25.179 153.182 C 25.417 72.265,24.940 78.266,31.323 76.015 C 35.720 74.464,234.938 74.987,237.305 76.555 M320.474 149.805 L 328.229 157.422 308.060 157.813 C 274.640 158.460,274.784 158.269,275.149 201.692 L 275.391 230.337 277.763 233.711 C 283.730 242.197,283.604 242.178,333.008 242.183 L 375.000 242.188 375.000 250.000 L 375.000 257.813 369.883 257.813 C 361.539 257.813,357.081 261.596,358.091 267.821 C 358.945 273.081,361.864 275.000,369.009 275.000 L 375.227 275.000 374.774 280.397 C 374.058 288.938,371.336 291.406,362.633 291.406 L 357.923 291.406 356.720 287.305 C 345.422 248.792,286.337 249.080,276.437 287.695 L 275.486 291.406 267.040 291.406 L 258.594 291.406 258.594 216.797 L 258.594 142.188 285.656 142.188 L 312.719 142.188 320.474 149.805 M359.580 188.876 C 375.328 204.643,375.000 204.053,375.000 216.596 L 375.000 225.000 334.830 225.000 C 312.736 225.000,294.103 224.787,293.423 224.526 C 291.772 223.892,291.520 176.181,293.164 175.517 C 293.701 175.301,305.746 175.096,319.930 175.062 L 345.719 175.000 359.580 188.876 M241.406 266.803 L 241.406 291.418 191.371 291.217 L 141.336 291.016 139.500 285.761 C 126.662 249.019,73.334 249.019,60.501 285.761 L 58.665 291.016 45.702 291.230 C 24.614 291.579,25.474 292.723,25.140 263.867 L 24.890 242.188 133.148 242.188 L 241.406 242.188 241.406 266.803 M327.882 278.392 C 346.018 287.583,345.230 313.825,326.567 322.201 C 317.732 326.166,307.937 324.644,300.761 318.193 C 279.478 299.057,302.369 265.464,327.882 278.392 M111.622 278.539 C 125.780 286.244,128.593 305.782,117.188 317.188 C 102.499 331.876,77.266 322.585,75.959 302.006 C 74.712 282.384,94.620 269.285,111.622 278.539 " stroke="none" fill="#000000" fill-rule="evenodd"></path></g></svg>