<svg id="svg" xmlns="http://www.w3.org/2000/svg" xmlns:xlink="http://www.w3.org/1999/xlink" width="400" height="400" viewBox="0, 0, 400,400"><g id="svgg"><path id="path0" d="M256.701 44.009 C 251.644 49.066,255.086 53.476,264.632 54.169 C 295.329 56.398,320.429 81.154,322.434 111.178 C 322.986 119.447,324.379 121.875,328.572 121.875 C 333.515 121.875,334.663 119.726,334.163 111.415 C 331.951 74.658,302.978 45.458,265.836 42.553 C 258.882 42.008,258.668 42.043,256.701 44.009 M256.250 71.094 C 251.779 75.564,255.230 80.352,263.599 81.290 C 280.185 83.150,292.917 95.822,295.394 112.936 C 296.414 119.979,297.628 121.875,301.119 121.875 C 312.222 121.875,307.473 97.371,293.701 83.599 C 283.004 72.901,261.592 65.752,256.250 71.094 M258.059 96.882 C 252.260 99.213,254.071 107.015,260.656 108.068 C 264.585 108.696,267.610 111.865,268.240 116.013 C 269.476 124.150,279.700 122.775,279.680 114.475 C 279.655 104.289,266.421 93.521,258.059 96.882 M30.853 124.888 C 26.911 126.687,22.988 131.102,21.922 134.940 C 20.661 139.480,20.787 303.870,22.055 308.112 C 24.718 317.025,30.756 319.531,49.565 319.531 C 59.379 319.531,62.506 319.767,62.524 320.508 C 63.633 365.407,125.481 370.668,131.402 326.367 L 132.316 319.531 200.000 319.531 L 267.684 319.531 268.598 326.367 C 274.270 368.805,332.458 366.866,337.115 324.084 L 337.597 319.652 352.197 319.396 C 375.051 318.996,378.898 315.639,378.898 296.094 C 378.898 281.776,373.591 273.438,364.478 273.438 L 362.500 273.438 362.500 247.092 L 362.500 220.747 333.604 191.819 L 304.707 162.891 278.916 162.656 L 253.125 162.421 253.125 148.911 C 253.125 133.296,252.259 130.466,246.162 126.172 L 242.834 123.828 138.409 123.644 C 38.686 123.468,33.843 123.524,30.853 124.888 M89.063 153.726 L 89.063 172.296 81.824 179.505 L 74.586 186.713 70.301 185.818 C 50.158 181.612,39.699 209.509,57.931 218.811 C 72.503 226.245,89.238 212.112,83.557 197.170 C 82.775 195.113,83.133 194.624,91.760 185.974 L 100.781 176.930 100.781 156.043 L 100.781 135.156 116.016 135.156 L 131.250 135.156 131.250 172.973 L 131.250 210.789 127.717 212.860 C 111.527 222.347,119.721 247.159,138.646 245.954 C 155.675 244.870,161.084 221.463,146.286 212.891 L 142.240 210.547 142.214 172.852 L 142.188 135.156 158.558 135.156 L 174.928 135.156 175.159 156.238 L 175.391 177.320 183.960 185.914 L 192.529 194.509 192.554 202.262 C 192.598 216.394,202.065 223.784,215.223 219.959 C 237.017 213.623,227.837 180.951,205.658 185.914 L 201.359 186.876 194.039 179.586 L 186.719 172.296 186.719 153.726 L 186.719 135.156 212.351 135.156 C 233.253 135.156,238.262 135.361,239.499 136.265 C 240.977 137.346,241.021 139.089,241.224 205.406 L 241.432 273.438 137.122 273.438 L 32.813 273.438 32.813 205.859 C 32.813 139.323,32.837 138.257,34.375 136.719 C 35.876 135.218,36.979 135.156,62.500 135.156 L 89.063 135.156 89.063 153.726 M324.800 200.191 L 350.781 226.163 350.781 249.800 L 350.781 273.438 301.953 273.438 L 253.125 273.438 253.125 223.828 L 253.125 174.219 275.972 174.219 L 298.820 174.219 324.800 200.191 M70.739 198.793 C 74.692 202.746,72.115 209.375,66.625 209.375 C 63.188 209.375,60.156 206.446,60.156 203.125 C 60.156 199.913,63.194 196.875,66.406 196.875 C 67.928 196.875,69.530 197.584,70.739 198.793 M214.384 199.279 C 216.627 201.944,216.842 203.191,215.497 205.715 C 212.891 210.609,206.652 210.805,204.204 206.071 C 200.714 199.322,209.492 193.465,214.384 199.279 M141.466 224.159 C 144.336 227.028,144.469 230.246,141.834 233.089 C 136.980 238.327,128.643 231.330,132.082 224.905 C 133.940 221.433,138.387 221.080,141.466 224.159 M365.478 286.749 C 367.033 288.198,367.187 289.106,367.187 296.784 C 367.187 308.673,368.046 308.139,348.458 308.443 L 333.013 308.683 331.026 305.291 C 318.609 284.103,286.085 283.760,272.664 304.675 L 270.150 308.594 199.219 308.594 L 128.288 308.594 125.820 304.747 C 112.316 283.704,79.885 284.007,67.411 305.293 L 65.422 308.686 50.760 308.445 C 31.808 308.132,32.813 308.874,32.813 295.191 L 32.813 285.156 198.290 285.156 C 363.742 285.156,363.768 285.157,365.478 286.749 M107.529 302.987 C 121.271 310.031,124.165 328.179,113.281 339.063 C 99.000 353.344,74.628 343.509,74.696 323.491 C 74.753 306.464,92.585 295.328,107.529 302.987 M312.592 303.326 C 328.960 311.799,328.929 334.342,312.536 343.264 C 301.406 349.322,287.688 344.812,281.980 333.218 C 272.288 313.531,293.082 293.226,312.592 303.326 " stroke="none" fill="#000000" fill-rule="evenodd"></path></g></svg>