<svg id="svg" xmlns="http://www.w3.org/2000/svg" width="400" height="400" viewBox="0, 0, 400,400"><g id="svgg"><path id="path0" d="M128.906 14.523 C 127.832 14.712,123.613 15.427,119.531 16.111 C 43.940 28.778,-3.758 109.100,20.385 183.072 C 46.448 262.930,143.002 297.301,212.817 251.574 L 218.993 247.529 229.706 258.222 L 240.419 268.915 240.035 275.668 C 239.000 293.846,238.961 293.790,284.290 339.291 C 329.094 384.265,329.867 384.861,344.531 385.735 C 368.900 387.187,387.187 368.900,385.735 344.531 C 384.861 329.867,384.265 329.094,339.291 284.290 C 293.790 238.961,293.846 239.000,275.668 240.035 L 268.915 240.419 258.219 229.703 L 247.522 218.986 251.170 213.595 C 277.446 174.754,278.703 117.997,254.193 77.109 C 235.535 45.984,204.055 23.699,168.359 16.347 C 160.842 14.798,134.296 13.571,128.906 14.523 M164.453 26.584 C 256.740 45.915,290.636 157.925,224.280 224.280 C 157.819 290.741,45.304 256.496,26.563 164.103 C 10.197 83.417,84.067 9.745,164.453 26.584 M134.766 44.982 C 123.703 46.523,119.736 47.338,113.281 49.391 C 29.709 75.985,20.567 191.675,98.950 230.746 C 170.431 266.377,252.940 205.975,240.197 127.344 C 232.115 77.471,182.087 38.390,134.766 44.982 M152.734 57.116 C 216.424 64.921,250.400 136.295,215.743 189.480 C 178.526 246.592,94.111 241.093,64.912 179.653 C 36.121 119.075,86.358 48.982,152.734 57.116 M128.516 75.158 C 116.085 77.758,111.418 80.607,111.558 85.508 C 111.696 90.379,115.815 91.690,122.822 89.095 C 125.094 88.254,128.705 87.179,130.847 86.707 C 135.901 85.593,137.500 84.094,137.500 80.469 C 137.500 75.849,134.288 73.950,128.516 75.158 M149.654 76.736 C 146.546 81.173,148.909 85.438,155.197 86.743 C 169.421 89.696,183.939 99.877,191.406 112.134 C 195.249 118.442,196.449 119.531,199.553 119.531 C 213.883 119.531,197.529 93.614,175.726 81.771 C 164.703 75.784,152.035 73.337,149.654 76.736 M248.521 237.305 L 256.781 245.703 251.120 251.258 L 245.459 256.814 237.005 248.332 L 228.550 239.851 233.981 234.379 C 240.587 227.722,238.728 227.348,248.521 237.305 M289.952 254.129 C 292.256 255.258,296.068 258.137,298.423 260.525 L 302.706 264.869 283.787 283.787 L 264.869 302.706 260.525 298.423 C 238.566 276.770,262.537 240.688,289.952 254.129 M371.705 335.938 C 380.186 353.099,367.062 373.768,347.656 373.813 C 335.819 373.840,337.172 374.838,303.312 341.121 L 273.420 311.357 292.369 292.396 L 311.318 273.435 340.450 302.538 C 363.813 325.878,370.002 332.491,371.705 335.938 " stroke="none" fill="#000000" fill-rule="evenodd"></path></g></svg>