<svg id="svg" xmlns="http://www.w3.org/2000/svg" xmlns:xlink="http://www.w3.org/1999/xlink" width="400" height="400" viewBox="0, 0, 400,400"><g id="svgg"><path id="path0" d="M173.828 15.567 C 169.478 17.391,169.159 18.607,168.899 34.323 L 168.658 48.955 162.649 50.357 C 149.716 53.374,130.385 61.412,119.531 68.287 L 115.234 71.008 105.013 60.895 L 94.792 50.781 90.986 50.781 L 87.179 50.781 68.980 68.980 L 50.781 87.179 50.781 90.986 L 50.781 94.792 60.868 105.013 L 70.956 115.234 67.430 121.094 C 60.324 132.903,53.319 149.953,50.357 162.649 L 48.955 168.658 34.259 168.899 L 19.563 169.141 17.399 171.307 L 15.234 173.473 15.234 200.000 L 15.234 226.527 17.399 228.693 L 19.563 230.859 34.259 231.101 L 48.955 231.342 50.357 237.351 C 53.319 250.047,60.324 267.097,67.430 278.906 L 70.956 284.766 60.868 294.987 L 50.781 305.208 50.781 309.014 L 50.781 312.821 68.980 331.020 L 87.179 349.219 90.986 349.219 L 94.792 349.219 105.013 339.132 L 115.234 329.044 121.094 332.570 C 132.920 339.686,149.952 346.681,162.695 349.654 L 168.750 351.067 168.750 359.897 L 168.750 368.727 94.158 368.934 L 19.566 369.141 17.400 371.307 C 14.328 374.379,14.328 379.527,17.401 382.599 L 19.567 384.766 200.000 384.766 L 380.433 384.766 382.599 382.599 C 385.672 379.527,385.672 374.379,382.600 371.307 L 380.434 369.141 305.842 368.934 L 231.250 368.727 231.250 359.897 L 231.250 351.067 237.305 349.654 C 250.048 346.681,267.080 339.686,278.906 332.570 L 284.766 329.044 294.987 339.132 L 305.208 349.219 309.014 349.219 L 312.821 349.219 331.020 331.020 L 349.219 312.821 349.219 309.014 L 349.219 305.208 339.132 294.987 L 329.044 284.766 332.570 278.906 C 339.676 267.097,346.681 250.047,349.643 237.351 L 351.045 231.342 365.741 231.101 L 380.437 230.859 382.601 228.693 L 384.766 226.527 384.766 200.000 L 384.766 173.473 382.601 171.307 L 380.437 169.141 365.741 168.899 L 351.045 168.658 349.643 162.649 C 346.681 149.953,339.676 132.903,332.570 121.094 L 329.044 115.234 339.132 105.013 L 349.219 94.792 349.219 90.986 L 349.219 87.179 331.020 68.980 L 312.821 50.781 309.014 50.781 L 305.208 50.781 294.987 60.868 L 284.766 70.956 278.906 67.430 C 267.097 60.324,250.047 53.319,237.351 50.357 L 231.342 48.955 231.101 34.259 L 230.859 19.563 228.694 17.399 L 226.529 15.234 200.960 15.073 C 186.897 14.984,174.688 15.206,173.828 15.567 M214.844 44.090 C 214.844 62.295,214.639 61.994,229.235 65.249 C 245.986 68.984,262.691 75.984,275.630 84.689 C 286.550 92.035,287.063 91.927,299.565 79.669 L 309.056 70.363 319.374 80.702 L 329.691 91.040 321.447 99.231 C 308.132 112.460,307.908 113.360,315.228 124.251 C 324.114 137.472,330.969 153.806,334.751 170.765 C 338.006 185.361,337.705 185.156,355.910 185.156 L 368.750 185.156 368.750 200.000 L 368.750 214.844 355.910 214.844 C 337.705 214.844,338.006 214.639,334.751 229.235 C 331.016 245.986,324.016 262.691,315.311 275.630 C 307.965 286.550,308.073 287.063,320.331 299.565 L 329.637 309.056 319.298 319.374 L 308.960 329.691 300.769 321.447 C 287.539 308.131,286.638 307.907,275.749 315.232 C 262.689 324.017,246.040 331.004,229.235 334.751 C 214.639 338.006,214.844 337.705,214.844 355.910 L 214.844 368.750 200.000 368.750 L 185.156 368.750 185.156 355.910 C 185.156 337.705,185.361 338.006,170.765 334.751 C 153.960 331.004,137.311 324.017,124.251 315.232 C 113.362 307.907,112.461 308.131,99.231 321.447 L 91.040 329.691 80.702 319.374 L 70.363 309.056 79.669 299.565 C 91.915 287.076,92.025 286.557,84.738 275.671 C 75.895 262.459,68.988 246.001,65.249 229.235 C 61.994 214.639,62.295 214.844,44.090 214.844 L 31.250 214.844 31.250 200.000 L 31.250 185.156 44.090 185.156 C 62.295 185.156,61.994 185.361,65.249 170.765 C 68.984 154.014,75.984 137.309,84.689 124.370 C 92.035 113.450,91.927 112.937,79.669 100.435 L 70.363 90.944 80.702 80.626 L 91.040 70.309 99.231 78.553 C 112.460 91.868,113.360 92.092,124.251 84.772 C 137.590 75.807,155.902 68.211,172.313 64.834 C 185.058 62.212,185.156 62.053,185.156 44.090 L 185.156 31.250 200.000 31.250 L 214.844 31.250 214.844 44.090 M181.716 101.255 C 102.749 115.516,72.344 213.781,129.281 270.719 C 192.450 333.887,300.000 289.336,300.000 200.000 C 300.000 137.168,243.596 90.081,181.716 101.255 M219.699 118.283 C 283.677 134.513,305.713 212.942,259.328 259.328 C 209.471 309.184,124.848 279.356,116.397 208.948 C 109.585 152.189,164.244 104.216,219.699 118.283 M188.340 139.082 C 124.721 152.452,120.728 239.992,182.846 259.499 C 192.348 262.482,209.549 262.167,219.179 258.833 C 275.924 239.185,275.924 160.440,219.179 141.221 C 211.454 138.604,195.785 137.518,188.340 139.082 M214.063 156.717 C 245.528 166.607,255.915 206.288,233.467 230.849 C 215.600 250.398,184.400 250.398,166.533 230.849 C 134.995 196.341,169.400 142.679,214.063 156.717 M193.150 169.529 C 159.648 176.629,162.284 227.226,196.346 230.873 C 210.975 232.440,213.158 216.775,198.592 214.760 C 190.556 213.647,185.547 207.933,185.547 199.877 C 185.547 181.331,212.216 180.218,214.768 198.657 C 215.730 205.603,217.728 207.813,223.047 207.813 C 231.708 207.813,233.750 198.455,227.752 186.243 C 221.533 173.582,207.046 166.585,193.150 169.529 " stroke="none" fill="#000000" fill-rule="evenodd"></path></g></svg>